<?xml version="1.0" encoding="utf-8"?>
<!-- Generator: Adobe Illustrator 17.0.0, SVG Export Plug-In . SVG Version: 6.00 Build 0)  -->
<!DOCTYPE svg PUBLIC "-//W3C//DTD SVG 1.1//EN" "http://www.w3.org/Graphics/SVG/1.1/DTD/svg11.dtd">
<svg version="1.1" id="Layer_1" xmlns="http://www.w3.org/2000/svg" xmlns:xlink="http://www.w3.org/1999/xlink" x="0px" y="0px"
	 width="287.667px" height="79.333px" viewBox="0 0 287.667 79.333" enable-background="new 0 0 287.667 79.333"
	 xml:space="preserve">
<g>
	<path d="M35.59,44.686c0,4.111-1.532,7.282-4.595,9.513c-3.063,2.23-7.363,3.345-12.898,3.345c-5.858,0-10.426-0.927-13.704-2.78
		v-6.208c2.122,1.075,4.399,1.922,6.832,2.54c2.432,0.618,4.776,0.927,7.034,0.927c3.493,0,6.18-0.558,8.061-1.673
		c1.88-1.114,2.821-2.814,2.821-5.099c0-1.72-0.746-3.19-2.237-4.413s-4.4-2.667-8.726-4.333c-4.111-1.532-7.034-2.868-8.767-4.011
		c-1.733-1.142-3.023-2.438-3.87-3.89c-0.846-1.451-1.27-3.184-1.27-5.199c0-3.601,1.464-6.442,4.394-8.525
		c2.928-2.082,6.946-3.124,12.051-3.124c4.756,0,9.405,0.967,13.946,2.902l-2.378,5.441c-4.434-1.827-8.451-2.741-12.051-2.741
		c-3.171,0-5.562,0.498-7.175,1.491c-1.612,0.994-2.418,2.365-2.418,4.111c0,1.183,0.302,2.19,0.907,3.023
		c0.604,0.833,1.578,1.626,2.922,2.378c1.343,0.752,3.923,1.841,7.739,3.265c5.24,1.908,8.78,3.83,10.621,5.764
		C34.67,39.325,35.59,41.757,35.59,44.686z"/>
	<path d="M67.029,57.543c-2.875,0-5.501-0.53-7.88-1.592c-2.378-1.061-4.373-2.693-5.985-4.897H52.68
		c0.323,2.58,0.484,5.025,0.484,7.336v18.179h-6.691V12.562h5.441l0.927,6.046h0.322c1.719-2.418,3.721-4.165,6.006-5.24
		c2.283-1.074,4.903-1.612,7.859-1.612c5.858,0,10.379,2.002,13.563,6.005c3.184,4.004,4.776,9.62,4.776,16.848
		c0,7.255-1.619,12.892-4.857,16.908C77.273,55.535,72.779,57.543,67.029,57.543z M66.062,17.439c-4.514,0-7.779,1.25-9.794,3.749
		c-2.015,2.499-3.05,6.476-3.104,11.93v1.492c0,6.207,1.034,10.647,3.104,13.321c2.069,2.674,5.387,4.01,9.956,4.01
		c3.815,0,6.805-1.544,8.968-4.635c2.163-3.09,3.245-7.349,3.245-12.777c0-5.508-1.082-9.734-3.245-12.676
		C73.028,18.91,69.985,17.439,66.062,17.439z"/>
	<path d="M115.719,57.543c-6.529,0-11.682-1.987-15.457-5.965c-3.776-3.977-5.663-9.498-5.663-16.566
		c0-7.12,1.753-12.777,5.26-16.969c3.507-4.192,8.216-6.288,14.127-6.288c5.535,0,9.916,1.82,13.14,5.461
		c3.225,3.641,4.837,8.444,4.837,14.409v4.232h-30.431c0.134,5.187,1.444,9.123,3.93,11.81c2.485,2.688,5.986,4.031,10.5,4.031
		c4.756,0,9.458-0.994,14.107-2.982v5.965c-2.365,1.021-4.602,1.753-6.711,2.196C121.247,57.321,118.702,57.543,115.719,57.543z
		 M113.905,17.359c-3.547,0-6.375,1.155-8.484,3.466c-2.11,2.311-3.353,5.509-3.729,9.593h23.096c0-4.218-0.941-7.45-2.822-9.694
		C120.086,18.481,117.398,17.359,113.905,17.359z"/>
	<path d="M161.023,57.543c-6.396,0-11.347-1.968-14.853-5.904c-3.507-3.937-5.261-9.506-5.261-16.707c0-7.389,1.78-13.1,5.341-17.13
		c3.561-4.031,8.632-6.046,15.216-6.046c2.122,0,4.245,0.229,6.368,0.685c2.122,0.457,3.789,0.995,4.998,1.612l-2.056,5.683
		c-1.478-0.591-3.09-1.082-4.837-1.471c-1.747-0.389-3.292-0.584-4.635-0.584c-8.976,0-13.463,5.724-13.463,17.17
		c0,5.428,1.095,9.593,3.285,12.495c2.19,2.902,5.435,4.354,9.734,4.354c3.681,0,7.456-0.792,11.326-2.378v5.925
		C169.232,56.778,165.51,57.543,161.023,57.543z"/>
	<path d="M196.936,52.022c1.182,0,2.324-0.087,3.426-0.262s1.976-0.356,2.62-0.544v5.118c-0.726,0.35-1.794,0.639-3.204,0.867
		c-1.411,0.228-2.681,0.342-3.81,0.342c-8.545,0-12.817-4.5-12.817-13.502v-26.28h-6.328v-3.225l6.328-2.781l2.822-9.432h3.869
		v10.238h12.817v5.199h-12.817v25.998c0,2.66,0.631,4.702,1.895,6.127C192.999,51.31,194.732,52.022,196.936,52.022z"/>
	<path d="M230.47,57.543c-6.53,0-11.683-1.987-15.458-5.965c-3.775-3.977-5.663-9.498-5.663-16.566
		c0-7.12,1.754-12.777,5.261-16.969c3.506-4.192,8.215-6.288,14.127-6.288c5.535,0,9.915,1.82,13.14,5.461s4.837,8.444,4.837,14.409
		v4.232h-30.432c0.135,5.187,1.444,9.123,3.931,11.81c2.484,2.688,5.985,4.031,10.499,4.031c4.757,0,9.458-0.994,14.107-2.982v5.965
		c-2.364,1.021-4.602,1.753-6.711,2.196S233.452,57.543,230.47,57.543z M228.655,17.359c-3.547,0-6.375,1.155-8.484,3.466
		s-3.352,5.509-3.728,9.593h23.095c0-4.218-0.94-7.45-2.821-9.694C234.836,18.481,232.149,17.359,228.655,17.359z"/>
	<path d="M278.274,11.756c1.961,0,3.722,0.161,5.28,0.483l-0.928,6.207c-1.827-0.403-3.439-0.604-4.836-0.604
		c-3.574,0-6.631,1.451-9.17,4.353c-2.539,2.902-3.809,6.517-3.809,10.842v23.7h-6.691V12.562h5.522l0.766,8.182h0.322
		c1.639-2.875,3.613-5.092,5.925-6.651C272.966,12.535,275.506,11.756,278.274,11.756z"/>
</g>
<g>
</g>
<g>
</g>
<g>
</g>
<g>
</g>
<g>
</g>
<g>
</g>
</svg>
